<?xml version="1.0" encoding="UTF-8" standalone="no"?>
<!DOCTYPE svg PUBLIC "-//W3C//DTD SVG 1.1//EN" "http://www.w3.org/Graphics/SVG/1.1/DTD/svg11.dtd">
<svg width="100%" height="100%" viewBox="0 0 1466 1294" version="1.1" xmlns="http://www.w3.org/2000/svg" xmlns:xlink="http://www.w3.org/1999/xlink" xml:space="preserve" xmlns:serif="http://www.serif.com/" style="fill-rule:evenodd;clip-rule:evenodd;stroke-linecap:round;stroke-linejoin:round;stroke-miterlimit:1.5;">
    <g transform="matrix(1,0,0,1,-1072.25,-626.556)">
        <g id="Layer1">
            <g transform="matrix(0.990967,0,0,1.03002,-4.89059,-56.3816)">
                <path d="M2381.1,668.323C2428.63,668.323 2474.22,686.489 2507.83,718.825C2541.44,751.161 2560.32,795.018 2560.32,840.747L2560.32,1742.42C2560.32,1837.14 2480.51,1913.93 2382.06,1913.93L1271.42,1913.93C1223.96,1913.93 1178.44,1895.79 1144.88,1863.5C1111.32,1831.21 1092.46,1787.42 1092.46,1741.76L1092.46,840.077C1092.46,794.525 1111.27,750.839 1144.75,718.629C1178.23,686.419 1223.64,668.323 1270.99,668.323L2381.1,668.323Z" style="fill:white;stroke:black;stroke-width:10.79px;"/>
            </g>
            <g transform="matrix(0.912061,0,0,1.30093,155.042,-266.889)">
                <path d="M1939.1,811.282C1943.15,811.282 1946.44,813.587 1946.44,816.431C1946.44,834.318 1946.44,893.589 1946.44,910.498C1946.44,911.702 1945.76,912.857 1944.55,913.708C1943.33,914.559 1941.68,915.037 1939.97,915.037C1904.42,915.037 1709.72,915.037 1697.63,915.037C1694.05,915.037 1691.15,913.005 1691.15,910.498L1691.15,815.821C1691.15,814.617 1691.83,813.463 1693.05,812.611C1694.26,811.76 1695.91,811.282 1697.63,811.282C1732.9,811.282 1901.71,811.282 1939.1,811.282Z"/>
            </g>
            <path d="M1913.49,1742.9L1913.49,1148.64" style="fill:none;stroke:black;stroke-width:13.49px;"/>
            <g transform="matrix(1,0,0,1,4.8872,1.28905)">
                <path d="M2120.38,1745.09L2120.38,1152.03" style="fill:none;stroke:black;stroke-width:13.49px;"/>
            </g>
            <g transform="matrix(1,0,0,1,0.118876,0)">
                <path d="M1701.83,1736.33L1701.83,1150.84" style="fill:none;stroke:black;stroke-width:13.49px;"/>
            </g>
            <g transform="matrix(1,0,0,1,-206.25,-0.596621)">
                <path d="M1701.83,1736.33L1701.83,1150.84" style="fill:none;stroke:black;stroke-width:13.49px;"/>
            </g>
            <g transform="matrix(0.974247,0,0,0.930957,42.5586,91.1274)">
                <rect x="1604.91" y="1276.3" width="196.678" height="105.1" style="fill:rgb(105,186,201);stroke:black;stroke-width:14.16px;"/>
            </g>
            <g transform="matrix(1,0,0,1,-2.34528,14.634)">
                <g transform="matrix(0.974247,0,0,0.930957,-162.868,382.322)">
                    <rect x="1604.91" y="1276.3" width="196.678" height="105.1" style="fill:rgb(246,84,41);stroke:black;stroke-width:14.16px;"/>
                </g>
                <g transform="matrix(1.14993,0,0,1,-469.459,283.441)">
                    <path d="M1648.24,1335.98L1771.05,1335.98" style="fill:none;stroke:white;stroke-width:12.52px;"/>
                </g>
            </g>
            <g transform="matrix(1.14993,0,0,1,-264.033,-7.75364)">
                <path d="M1648.24,1335.98L1771.05,1335.98" style="fill:none;stroke:white;stroke-width:12.52px;"/>
            </g>
            <g transform="matrix(0.974247,0,0,0.930957,255.421,272.185)">
                <rect x="1604.91" y="1276.3" width="196.678" height="105.1" style="fill:rgb(254,205,43);stroke:black;stroke-width:14.16px;"/>
            </g>
            <g transform="matrix(1.14993,0,0,1,-51.1706,173.304)">
                <path d="M1648.24,1335.98L1771.05,1335.98" style="fill:none;stroke:white;stroke-width:12.52px;"/>
            </g>
            <g transform="matrix(0.974247,0,0,0.930957,464.811,10.4019)">
                <rect x="1604.91" y="1276.3" width="196.678" height="105.1" style="fill:rgb(148,122,183);stroke:black;stroke-width:14.16px;"/>
            </g>
            <g transform="matrix(1.14993,0,0,1,158.219,-88.4792)">
                <path d="M1648.24,1335.98L1771.05,1335.98" style="fill:none;stroke:white;stroke-width:12.52px;"/>
            </g>
            <g transform="matrix(1.0565,0,0,1.0565,804.357,861.371)">
                <circle cx="1496.04" cy="855.289" r="79.37" style="fill:rgb(246,84,41);stroke:black;stroke-width:12.77px;"/>
            </g>
            <g transform="matrix(1.0565,0,0,1.0565,804.357,152.99)">
                <circle cx="1496.04" cy="855.289" r="79.37" style="fill:rgb(105,186,201);stroke:black;stroke-width:12.77px;"/>
            </g>
            <g transform="matrix(1.0565,0,0,1.0565,550.101,-47.592)">
                <circle cx="1496.04" cy="855.289" r="79.37" style="fill:rgb(254,205,43);"/>
                <clipPath id="_clip1">
                    <circle cx="1496.04" cy="855.289" r="79.37"/>
                </clipPath>
                <g clip-path="url(#_clip1)">
                    <g transform="matrix(0.946521,0,0,0.55491,-520.049,352.098)">
                        <path d="M1486.13,824.037L1486.13,787.752" style="fill:none;stroke:white;stroke-width:16.27px;stroke-miterlimit:0;"/>
                    </g>
                </g>
                <circle cx="1496.04" cy="855.289" r="79.37" style="fill:none;stroke:black;stroke-width:12.77px;"/>
            </g>
            <g transform="matrix(1.0565,0,0,1.0565,-93.7746,-47.592)">
                <circle cx="1496.04" cy="855.289" r="79.37" style="fill:rgb(148,122,183);stroke:black;stroke-width:12.77px;"/>
            </g>
            <g transform="matrix(1.0565,0,0,1.0565,-349.424,152.99)">
                <circle cx="1496.04" cy="855.289" r="79.37" style="fill:rgb(121,218,122);stroke:black;stroke-width:12.77px;"/>
            </g>
            <g transform="matrix(1,0,0,1,21.9605,-23.0301)">
                <g transform="matrix(1,0,0,1,-32.2642,25.7442)">
                    <path d="M1263.41,1635.69C1259.6,1635.69 1256.5,1632.59 1256.5,1628.78C1256.5,1624.97 1259.6,1621.87 1263.41,1621.87C1267.23,1621.87 1270.32,1624.97 1270.32,1628.78C1270.32,1632.59 1267.23,1635.69 1263.41,1635.69ZM1290.22,1639.2C1286.53,1638.21 1284.34,1634.42 1285.33,1630.74C1286.31,1627.05 1290.11,1624.86 1293.79,1625.85C1297.48,1626.83 1299.67,1630.62 1298.68,1634.31C1297.69,1637.99 1293.9,1640.18 1290.22,1639.2ZM1315.17,1649.56C1311.87,1647.64 1310.75,1643.41 1312.66,1640.11C1314.57,1636.81 1318.8,1635.68 1322.1,1637.59C1325.4,1639.51 1326.53,1643.74 1324.62,1647.04C1322.71,1650.34 1318.48,1651.47 1315.17,1649.56ZM1336.62,1666.04C1333.92,1663.34 1333.92,1658.96 1336.62,1656.26C1339.31,1653.56 1343.69,1653.56 1346.39,1656.26C1349.09,1658.96 1349.09,1663.34 1346.39,1666.04C1343.69,1668.73 1339.31,1668.73 1336.62,1666.04ZM1353.09,1687.48C1351.18,1684.17 1352.31,1679.94 1355.61,1678.03C1358.91,1676.12 1363.15,1677.25 1365.06,1680.55C1366.97,1683.85 1365.84,1688.08 1362.54,1690C1359.24,1691.91 1355.01,1690.78 1353.09,1687.48ZM1363.45,1712.43C1362.46,1708.75 1364.66,1704.96 1368.34,1703.97C1372.03,1702.98 1375.82,1705.18 1376.8,1708.86C1377.79,1712.55 1375.6,1716.34 1371.91,1717.32C1368.23,1718.31 1364.44,1716.12 1363.45,1712.43ZM1366.96,1739.24C1366.96,1735.43 1370.06,1732.33 1373.87,1732.33C1377.68,1732.33 1380.78,1735.43 1380.78,1739.24C1380.78,1743.06 1377.68,1746.15 1373.87,1746.15C1370.06,1746.15 1366.96,1743.06 1366.96,1739.24ZM1363.45,1766.05C1364.44,1762.36 1368.23,1760.17 1371.91,1761.16C1375.6,1762.14 1377.79,1765.94 1376.8,1769.62C1375.82,1773.31 1372.03,1775.5 1368.34,1774.51C1364.66,1773.52 1362.46,1769.73 1363.45,1766.05ZM1353.09,1791.01C1355.01,1787.7 1359.24,1786.58 1362.54,1788.49C1365.84,1790.4 1366.97,1794.63 1365.06,1797.93C1363.15,1801.23 1358.91,1802.36 1355.61,1800.45C1352.31,1798.54 1351.18,1794.31 1353.09,1791.01ZM1336.62,1812.44C1339.31,1809.75 1343.69,1809.75 1346.39,1812.44C1349.09,1815.14 1349.09,1819.52 1346.39,1822.22C1343.69,1824.92 1339.31,1824.92 1336.62,1822.22C1333.92,1819.52 1333.92,1815.14 1336.62,1812.44ZM1315.17,1828.92C1318.48,1827.01 1322.71,1828.14 1324.62,1831.44C1326.53,1834.74 1325.4,1838.98 1322.1,1840.89C1318.8,1842.8 1314.57,1841.67 1312.66,1838.37C1310.75,1835.07 1311.87,1830.84 1315.17,1828.92ZM1290.22,1839.28C1293.9,1838.3 1297.69,1840.49 1298.68,1844.17C1299.67,1847.86 1297.48,1851.65 1293.79,1852.63C1290.11,1853.62 1286.31,1851.43 1285.33,1847.75C1284.34,1844.06 1286.53,1840.27 1290.22,1839.28ZM1263.41,1842.79C1267.23,1842.79 1270.32,1845.89 1270.32,1849.7C1270.32,1853.52 1267.23,1856.61 1263.41,1856.61C1259.6,1856.61 1256.5,1853.52 1256.5,1849.7C1256.5,1845.89 1259.6,1842.79 1263.41,1842.79ZM1236.6,1839.28C1240.29,1840.27 1242.48,1844.06 1241.49,1847.75C1240.51,1851.43 1236.71,1853.62 1233.03,1852.63C1229.35,1851.65 1227.15,1847.86 1228.14,1844.17C1229.13,1840.49 1232.92,1838.3 1236.6,1839.28ZM1211.65,1828.92C1214.95,1830.84 1216.08,1835.07 1214.16,1838.37C1212.25,1841.67 1208.02,1842.8 1204.72,1840.89C1201.42,1838.98 1200.29,1834.74 1202.2,1831.44C1204.11,1828.14 1208.35,1827.01 1211.65,1828.92ZM1190.2,1812.45C1192.9,1815.14 1192.9,1819.52 1190.2,1822.22C1187.51,1824.92 1183.13,1824.92 1180.43,1822.22C1177.73,1819.52 1177.73,1815.14 1180.43,1812.45C1183.13,1809.75 1187.51,1809.75 1190.2,1812.45ZM1173.73,1791.01C1175.64,1794.31 1174.51,1798.54 1171.21,1800.45C1167.91,1802.36 1163.67,1801.23 1161.76,1797.93C1159.85,1794.63 1160.98,1790.4 1164.28,1788.49C1167.58,1786.58 1171.82,1787.7 1173.73,1791.01ZM1163.37,1766.05C1164.36,1769.73 1162.16,1773.52 1158.48,1774.51C1154.79,1775.5 1151,1773.31 1150.02,1769.62C1149.03,1765.94 1151.22,1762.14 1154.9,1761.16C1158.59,1760.17 1162.38,1762.36 1163.37,1766.05ZM1159.86,1739.24C1159.86,1743.06 1156.76,1746.15 1152.95,1746.15C1149.13,1746.15 1146.04,1743.06 1146.04,1739.24C1146.04,1735.43 1149.13,1732.33 1152.95,1732.33C1156.76,1732.33 1159.86,1735.43 1159.86,1739.24ZM1163.37,1712.43C1162.38,1716.12 1158.59,1718.31 1154.9,1717.32C1151.22,1716.34 1149.03,1712.55 1150.02,1708.86C1151,1705.17 1154.79,1702.98 1158.48,1703.97C1162.16,1704.96 1164.36,1708.75 1163.37,1712.43ZM1173.73,1687.48C1171.82,1690.78 1167.58,1691.91 1164.28,1690C1160.98,1688.08 1159.85,1683.85 1161.76,1680.55C1163.67,1677.25 1167.91,1676.12 1171.21,1678.03C1174.51,1679.94 1175.64,1684.17 1173.73,1687.48ZM1190.2,1666.04C1187.51,1668.73 1183.13,1668.73 1180.43,1666.04C1177.73,1663.34 1177.73,1658.96 1180.43,1656.26C1183.13,1653.56 1187.51,1653.56 1190.2,1656.26C1192.9,1658.96 1192.9,1663.34 1190.2,1666.04ZM1211.65,1649.56C1208.35,1651.47 1204.11,1650.34 1202.2,1647.04C1200.29,1643.74 1201.42,1639.51 1204.72,1637.59C1208.02,1635.68 1212.25,1636.81 1214.16,1640.11C1216.08,1643.41 1214.95,1647.64 1211.65,1649.56ZM1236.6,1639.2C1232.92,1640.18 1229.13,1637.99 1228.14,1634.31C1227.15,1630.62 1229.35,1626.83 1233.03,1625.85C1236.71,1624.86 1240.51,1627.05 1241.49,1630.74C1242.48,1634.42 1240.29,1638.21 1236.6,1639.2Z"/>
                </g>
                <g transform="matrix(0.98659,0,0,0.98659,-41.2277,27.0507)">
                    <path d="M1289.67,1684.79C1285.8,1684.79 1282.66,1681.65 1282.66,1677.79C1282.66,1673.92 1285.8,1670.78 1289.67,1670.78C1293.54,1670.78 1296.67,1673.92 1296.67,1677.79C1296.67,1681.65 1293.54,1684.79 1289.67,1684.79ZM1315.92,1689.41C1312.29,1688.08 1310.42,1684.06 1311.74,1680.42C1313.06,1676.79 1317.09,1674.92 1320.72,1676.24C1324.35,1677.57 1326.23,1681.59 1324.9,1685.22C1323.58,1688.86 1319.56,1690.73 1315.92,1689.41ZM1339,1702.76C1336.04,1700.27 1335.65,1695.85 1338.14,1692.89C1340.63,1689.93 1345.05,1689.55 1348.01,1692.03C1350.97,1694.52 1351.35,1698.94 1348.87,1701.9C1346.38,1704.86 1341.96,1705.25 1339,1702.76ZM1356.15,1723.18C1354.22,1719.84 1355.36,1715.55 1358.71,1713.61C1362.05,1711.67 1366.34,1712.82 1368.28,1716.16C1370.22,1719.51 1369.07,1723.8 1365.73,1725.74C1362.38,1727.67 1358.09,1726.53 1356.15,1723.18ZM1365.28,1748.22C1364.61,1744.41 1367.16,1740.78 1370.97,1740.11C1374.77,1739.44 1378.41,1741.99 1379.08,1745.8C1379.74,1749.61 1377.19,1753.24 1373.39,1753.91C1369.58,1754.58 1365.94,1752.03 1365.28,1748.22ZM1365.28,1774.89C1365.94,1771.09 1369.58,1768.54 1373.39,1769.2C1377.19,1769.87 1379.74,1773.51 1379.08,1777.32C1378.41,1781.12 1374.77,1783.67 1370.97,1783.01C1367.16,1782.34 1364.61,1778.7 1365.28,1774.89ZM1356.15,1799.93C1358.09,1796.58 1362.38,1795.44 1365.73,1797.38C1369.07,1799.31 1370.22,1803.6 1368.28,1806.95C1366.34,1810.3 1362.05,1811.44 1358.71,1809.5C1355.36,1807.56 1354.22,1803.28 1356.15,1799.93ZM1339,1820.35C1341.96,1817.87 1346.38,1818.25 1348.87,1821.21C1351.35,1824.17 1350.97,1828.59 1348.01,1831.08C1345.05,1833.57 1340.63,1833.18 1338.14,1830.22C1335.65,1827.26 1336.04,1822.84 1339,1820.35ZM1315.92,1833.71C1319.56,1832.38 1323.58,1834.26 1324.9,1837.89C1326.23,1841.52 1324.35,1845.55 1320.72,1846.87C1317.09,1848.19 1313.06,1846.32 1311.74,1842.69C1310.42,1839.06 1312.29,1835.03 1315.92,1833.71ZM1289.67,1838.32C1293.54,1838.32 1296.67,1841.46 1296.67,1845.33C1296.67,1849.19 1293.54,1852.33 1289.67,1852.33C1285.8,1852.33 1282.66,1849.19 1282.66,1845.33C1282.66,1841.46 1285.8,1838.32 1289.67,1838.32ZM1263.41,1833.71C1267.05,1835.03 1268.92,1839.06 1267.6,1842.69C1266.27,1846.32 1262.25,1848.19 1258.62,1846.87C1254.98,1845.55 1253.11,1841.52 1254.43,1837.89C1255.76,1834.26 1259.78,1832.38 1263.41,1833.71ZM1240.34,1820.35C1243.3,1822.84 1243.68,1827.26 1241.2,1830.22C1238.71,1833.18 1234.29,1833.57 1231.33,1831.08C1228.37,1828.59 1227.98,1824.17 1230.47,1821.21C1232.96,1818.25 1237.38,1817.87 1240.34,1820.35ZM1223.18,1799.93C1225.12,1803.28 1223.98,1807.56 1220.63,1809.5C1217.28,1811.44 1212.99,1810.3 1211.06,1806.95C1209.12,1803.6 1210.26,1799.31 1213.61,1797.38C1216.95,1795.44 1221.25,1796.58 1223.18,1799.93ZM1214.06,1774.89C1214.73,1778.7 1212.18,1782.34 1208.37,1783.01C1204.56,1783.67 1200.93,1781.12 1200.26,1777.32C1199.59,1773.51 1202.14,1769.87 1205.95,1769.2C1209.76,1768.54 1213.39,1771.09 1214.06,1774.89ZM1214.06,1748.22C1213.39,1752.03 1209.76,1754.58 1205.95,1753.91C1202.14,1753.24 1199.59,1749.61 1200.26,1745.8C1200.93,1741.99 1204.56,1739.44 1208.37,1740.11C1212.18,1740.78 1214.73,1744.41 1214.06,1748.22ZM1223.18,1723.18C1221.25,1726.53 1216.95,1727.67 1213.61,1725.74C1210.26,1723.8 1209.12,1719.51 1211.06,1716.16C1212.99,1712.82 1217.28,1711.67 1220.63,1713.61C1223.98,1715.55 1225.12,1719.84 1223.18,1723.18ZM1240.34,1702.76C1237.38,1705.25 1232.96,1704.86 1230.47,1701.9C1227.98,1698.94 1228.37,1694.52 1231.33,1692.03C1234.29,1689.55 1238.71,1689.93 1241.2,1692.89C1243.68,1695.85 1243.3,1700.27 1240.34,1702.76ZM1263.41,1689.41C1259.78,1690.73 1255.76,1688.86 1254.43,1685.22C1253.11,1681.59 1254.98,1677.57 1258.62,1676.24C1262.25,1674.92 1266.27,1676.79 1267.6,1680.42C1268.92,1684.06 1267.05,1688.08 1263.41,1689.41Z"/>
                </g>
                <g transform="matrix(1.02005,0,0,1.02005,-78.6612,-16.4841)">
                    <path d="M1284.07,1699.31C1280.33,1699.31 1277.29,1696.27 1277.29,1692.53C1277.29,1688.79 1280.33,1685.76 1284.07,1685.76C1287.81,1685.76 1290.84,1688.79 1290.84,1692.53C1290.84,1696.27 1287.81,1699.31 1284.07,1699.31ZM1307.64,1705.62C1304.4,1703.75 1303.29,1699.6 1305.17,1696.36C1307.04,1693.12 1311.19,1692.02 1314.42,1693.89C1317.66,1695.77 1318.77,1699.91 1316.89,1703.15C1315.02,1706.39 1310.87,1707.49 1307.64,1705.62ZM1324.91,1722.89C1323.04,1719.66 1324.14,1715.51 1327.38,1713.63C1330.61,1711.76 1334.76,1712.87 1336.64,1716.1C1338.51,1719.34 1337.4,1723.49 1334.17,1725.36C1330.93,1727.24 1326.78,1726.13 1324.91,1722.89ZM1331.22,1746.46C1331.22,1742.72 1334.26,1739.68 1338,1739.68C1341.74,1739.68 1344.77,1742.72 1344.77,1746.46C1344.77,1750.2 1341.74,1753.24 1338,1753.24C1334.26,1753.24 1331.22,1750.2 1331.22,1746.46ZM1324.91,1770.03C1326.78,1766.79 1330.93,1765.69 1334.17,1767.56C1337.4,1769.43 1338.51,1773.58 1336.64,1776.82C1334.76,1780.06 1330.61,1781.16 1327.38,1779.29C1324.14,1777.41 1323.04,1773.27 1324.91,1770.03ZM1307.63,1787.3C1310.87,1785.43 1315.02,1786.54 1316.89,1789.77C1318.77,1793.01 1317.66,1797.16 1314.42,1799.03C1311.19,1800.9 1307.04,1799.8 1305.17,1796.56C1303.29,1793.32 1304.4,1789.18 1307.63,1787.3ZM1284.07,1793.61C1287.81,1793.61 1290.84,1796.65 1290.84,1800.39C1290.84,1804.13 1287.81,1807.16 1284.07,1807.16C1280.33,1807.16 1277.29,1804.13 1277.29,1800.39C1277.29,1796.65 1280.33,1793.61 1284.07,1793.61ZM1260.5,1787.3C1263.74,1789.18 1264.84,1793.32 1262.97,1796.56C1261.1,1799.8 1256.95,1800.9 1253.71,1799.03C1250.47,1797.16 1249.37,1793.01 1251.24,1789.77C1253.12,1786.54 1257.26,1785.43 1260.5,1787.3ZM1243.23,1770.03C1245.1,1773.27 1243.99,1777.41 1240.76,1779.29C1237.52,1781.16 1233.37,1780.05 1231.5,1776.82C1229.62,1773.58 1230.73,1769.43 1233.97,1767.56C1237.2,1765.69 1241.35,1766.79 1243.23,1770.03ZM1236.91,1746.46C1236.91,1750.2 1233.88,1753.24 1230.14,1753.24C1226.4,1753.24 1223.36,1750.2 1223.36,1746.46C1223.36,1742.72 1226.4,1739.68 1230.14,1739.68C1233.88,1739.68 1236.91,1742.72 1236.91,1746.46ZM1243.23,1722.89C1241.35,1726.13 1237.2,1727.24 1233.97,1725.36C1230.73,1723.49 1229.62,1719.34 1231.5,1716.1C1233.37,1712.87 1237.52,1711.76 1240.76,1713.63C1243.99,1715.51 1245.1,1719.66 1243.23,1722.89ZM1260.5,1705.62C1257.26,1707.49 1253.12,1706.39 1251.24,1703.15C1249.37,1699.91 1250.47,1695.77 1253.71,1693.89C1256.95,1692.02 1261.1,1693.12 1262.97,1696.36C1264.84,1699.6 1263.74,1703.75 1260.5,1705.62Z"/>
                </g>
                <g transform="matrix(1,0,0,1,-34.8366,16.0164)">
                    <path d="M1265.98,1728.51C1262.17,1728.51 1259.07,1725.41 1259.07,1721.6C1259.07,1717.79 1262.17,1714.69 1265.98,1714.69C1269.8,1714.69 1272.89,1717.79 1272.89,1721.6C1272.89,1725.41 1269.8,1728.51 1265.98,1728.51ZM1283.7,1738.75C1281.79,1735.45 1282.92,1731.22 1286.22,1729.3C1289.52,1727.39 1293.76,1728.52 1295.67,1731.82C1297.58,1735.12 1296.45,1739.36 1293.15,1741.27C1289.85,1743.18 1285.62,1742.05 1283.7,1738.75ZM1283.7,1759.19C1285.62,1755.89 1289.85,1754.76 1293.15,1756.67C1296.45,1758.58 1297.58,1762.81 1295.67,1766.11C1293.76,1769.42 1289.52,1770.54 1286.22,1768.63C1282.92,1766.72 1281.79,1762.49 1283.7,1759.19ZM1265.98,1769.42C1269.8,1769.42 1272.89,1772.52 1272.89,1776.34C1272.89,1780.15 1269.8,1783.25 1265.98,1783.25C1262.17,1783.25 1259.07,1780.15 1259.07,1776.34C1259.07,1772.52 1262.17,1769.42 1265.98,1769.42ZM1248.26,1759.19C1250.17,1762.49 1249.04,1766.72 1245.74,1768.63C1242.44,1770.54 1238.21,1769.42 1236.3,1766.11C1234.39,1762.81 1235.52,1758.58 1238.82,1756.67C1242.12,1754.76 1246.35,1755.89 1248.26,1759.19ZM1248.26,1738.75C1246.35,1742.05 1242.12,1743.18 1238.82,1741.27C1235.52,1739.36 1234.39,1735.12 1236.3,1731.82C1238.21,1728.52 1242.44,1727.39 1245.74,1729.3C1249.04,1731.22 1250.17,1735.45 1248.26,1738.75Z"/>
                </g>
                <g transform="matrix(1,0,0,1,-32.2642,25.9909)">
                    <path d="M1264.12,1741.1C1260.31,1741.11 1257.21,1738.01 1257.21,1734.19C1257.21,1730.38 1260.3,1727.28 1264.12,1727.28L1264.12,1727.28C1267.93,1727.28 1271.03,1730.38 1271.03,1734.19C1271.03,1738.01 1267.94,1741.1 1264.12,1741.1Z"/>
                </g>
            </g>
            <g transform="matrix(1.22438,0,0,1.22438,-315.087,-241.186)">
                <circle cx="1479.72" cy="1062.27" r="16.347"/>
            </g>
            <g transform="matrix(1.22438,0,0,1.22438,-110.392,-241.186)">
                <circle cx="1479.72" cy="1062.27" r="16.347"/>
            </g>
            <g transform="matrix(1.22438,0,0,1.22438,101.063,-241.186)">
                <circle cx="1479.72" cy="1062.27" r="16.347"/>
            </g>
            <g transform="matrix(1.22438,0,0,1.22438,312.519,-241.186)">
                <circle cx="1479.72" cy="1062.27" r="16.347"/>
            </g>
            <g transform="matrix(1,0,0,0.586263,0.676679,323.812)">
                <path d="M1486.13,824.037L1486.13,787.752" style="fill:none;stroke:white;stroke-width:16.27px;stroke-miterlimit:0;"/>
            </g>
            <g transform="matrix(1,0,0,0.5761,644.544,331.922)">
                <path d="M1486.13,824.037L1486.13,787.752" style="fill:none;stroke:white;stroke-width:16.34px;stroke-miterlimit:0;"/>
            </g>
        </g>
    </g>
</svg>
